<?xml version="1.0" standalone="no"?>
<!DOCTYPE svg PUBLIC "-//W3C//DTD SVG 20010904//EN"
 "http://www.w3.org/TR/2001/REC-SVG-20010904/DTD/svg10.dtd">
<svg version="1.0" xmlns="http://www.w3.org/2000/svg"
 width="192.000000pt" height="29.0pt" viewBox="0 0 192.000000 192.000000"
 preserveAspectRatio="xMidYMid meet">
<metadata>
Created by potrace 1.16, written by Peter Selinger 2001-2019
</metadata>
<g transform="translate(0.000000,192.000000) scale(0.100000,-0.100000)"
fill="#000000" stroke="none">
<path d="M365 1908 c-9 -29 -28 -121 -53 -253 -14 -77 -29 -141 -34 -143 -4
-2 -8 -16 -8 -30 0 -34 -9 -48 -37 -56 -13 -4 -23 -12 -23 -17 0 -5 -18 -9
-40 -9 -27 0 -43 -5 -46 -15 -4 -10 -20 -15 -45 -15 -38 0 -39 -1 -39 -33 0
-37 56 -208 71 -218 5 -3 11 -19 13 -36 4 -41 38 -133 48 -133 11 0 10 -167
-1 -188 -11 -21 -26 -416 -16 -432 5 -8 13 -6 26 9 10 11 19 25 19 31 0 5 5
10 10 10 6 0 10 7 10 15 0 8 7 15 15 15 8 0 15 7 15 15 0 8 5 15 10 15 6 0 10
7 10 15 0 8 7 15 15 15 8 0 15 3 15 8 0 4 13 22 29 41 28 33 29 33 49 15 11
-11 23 -29 26 -41 4 -13 12 -23 17 -23 5 0 9 -7 9 -15 0 -8 9 -24 19 -34 10
-10 22 -29 26 -42 11 -34 42 -62 59 -56 10 4 16 19 16 40 0 38 -28 127 -40
127 -4 0 -11 12 -15 27 -3 15 -10 30 -14 33 -3 3 -21 35 -39 73 -18 37 -37 67
-42 67 -5 0 -11 14 -15 30 -4 19 -13 30 -24 30 -17 0 -51 -33 -51 -50 0 -6 -4
-10 -10 -10 -5 0 -10 -7 -10 -15 0 -8 -6 -15 -13 -15 -7 0 -21 -15 -32 -32
-16 -27 -20 -30 -23 -14 -2 10 0 21 6 25 5 3 14 81 21 173 9 131 9 176 0 208
-7 22 -16 40 -21 40 -4 0 -8 5 -8 12 0 24 -44 158 -52 158 -4 0 -8 7 -8 15 0
11 12 15 44 15 25 0 48 5 51 10 3 6 15 10 25 10 25 0 36 23 45 93 4 31 11 57
15 57 4 0 14 38 21 85 7 47 16 85 20 85 10 0 21 -42 44 -167 10 -51 21 -93 25
-93 4 0 10 -18 14 -40 4 -28 11 -40 23 -40 14 0 15 10 10 83 -6 73 -27 197
-57 342 -6 28 -15 83 -20 123 -10 75 -23 112 -41 112 -5 0 -11 -6 -14 -12z"/>
<path d="M1391 858 c-1 -442 1 -478 30 -478 5 0 9 205 9 465 0 454 0 465 -19
465 -19 0 -20 -11 -20 -452z"/>
<path d="M460 1216 c0 -8 -6 -16 -13 -19 -17 -6 -36 -115 -31 -179 4 -64 24
-128 41 -128 7 0 13 -7 13 -15 0 -10 -10 -15 -31 -15 l-30 0 2 -62 c5 -128 27
-158 118 -158 57 0 59 1 70 30 5 17 10 33 10 37 -1 3 5 9 12 14 9 5 13 36 13
101 1 103 -8 148 -28 148 -12 0 -32 47 -24 55 5 5 40 7 81 6 l37 -1 0 -195 0
-195 50 0 50 0 0 195 0 195 35 0 35 0 0 100 0 100 -119 0 -120 0 -3 -52 c-3
-53 -3 -53 -16 -23 -31 75 -31 75 -94 75 -43 0 -58 -4 -58 -14z"/>
<path d="M915 1173 c-4 -32 -11 -63 -15 -68 -5 -6 -9 -20 -9 -30 1 -37 -33
-260 -41 -276 -5 -9 -12 -48 -16 -88 l-7 -71 52 0 c47 0 51 2 51 24 0 42 11
56 41 56 27 0 29 -3 29 -40 l0 -40 100 0 100 0 0 97 c0 53 2 94 4 92 3 -3 10
-34 15 -69 6 -36 15 -66 21 -68 5 -2 10 -15 10 -28 0 -22 4 -24 51 -24 l51 0
-4 33 c-3 17 -13 76 -23 129 -13 76 -14 105 -6 129 25 73 6 269 -26 269 -7 0
-13 7 -13 15 0 12 -17 15 -90 15 l-90 0 -1 -237 c-1 -135 -4 -227 -9 -213 -4
14 -8 40 -9 58 -1 18 -5 40 -10 50 -6 9 -17 82 -26 162 -9 80 -21 147 -26 148
-5 2 -9 10 -9 18 0 10 -13 14 -44 14 l-44 0 -7 -57z"/>
<path d="M1650 860 c0 -29 -1 -30 -50 -30 -38 0 -50 4 -50 15 0 11 -12 15 -45
15 l-45 0 0 -110 0 -110 39 0 c22 0 42 5 44 13 4 10 6 10 6 0 1 -10 31 -13
116 -13 l115 0 0 95 c0 52 -4 95 -9 95 -5 0 -11 14 -14 30 -7 31 -37 43 -37
15 0 -8 -9 -15 -20 -15 -11 0 -20 7 -20 15 0 8 -7 15 -15 15 -10 0 -15 -10
-15 -30z"/>
<path d="M1467 603 c-4 -3 -7 -55 -7 -115 l0 -108 29 0 c16 0 32 6 34 13 4 9
6 9 6 0 1 -9 50 -12 196 -13 l195 0 0 85 0 85 -210 0 -210 0 0 30 c0 28 -17
40 -33 23z"/>
<path d="M552 498 c3 -86 19 -113 33 -56 l9 33 3 -32 4 -33 165 1 164 1 0 84
c0 49 -4 84 -10 84 -5 0 -11 -15 -11 -32 -1 -18 -3 -25 -6 -15 -8 30 -47 17
-54 -18 l-7 -30 -1 32 -1 32 -92 0 c-146 -1 -148 0 -148 16 0 9 -9 15 -25 15
-26 0 -26 0 -23 -82z"/>
<path d="M1067 573 c-2 -5 -5 -43 -6 -85 l-2 -78 70 0 70 0 4 33 4 32 1 -33
c2 -25 6 -33 20 -31 37 3 62 -1 62 -12 0 -7 8 -17 17 -24 30 -22 42 4 41 93
l0 80 -48 0 c-45 0 -49 -2 -53 -27 -3 -14 -4 -8 -4 14 2 31 -2 41 -16 43 -10
2 -17 -3 -17 -12 0 -9 -8 -16 -17 -17 -10 0 -30 -2 -45 -3 -18 -1 -28 4 -31
16 -5 18 -42 25 -50 11z"/>
<path d="M36 288 c-9 -33 -36 -227 -36 -255 l0 -33 944 0 945 0 6 48 c4 26 11
71 16 101 5 30 9 76 9 103 l0 48 -940 0 c-744 0 -941 -3 -944 -12z m234 -75
c0 -7 8 -22 17 -33 16 -18 18 -18 35 -4 16 15 18 15 29 -9 9 -20 8 -35 -3 -69
-17 -51 -29 -52 -45 -6 l-12 33 0 -33 c-1 -20 -5 -31 -11 -27 -6 4 -8 23 -6
43 5 34 4 34 -6 -6 -18 -68 -32 -51 -24 29 6 64 5 70 -9 59 -9 -8 -15 -30 -15
-59 0 -25 -5 -53 -10 -61 -11 -17 -11 -19 -14 83 l-2 77 38 -2 c22 -2 38 -8
38 -15z m206 -44 c18 24 34 28 34 6 0 -20 17 -19 29 3 17 30 32 0 29 -59 -3
-47 -6 -54 -25 -57 -20 -3 -23 1 -24 30 l0 33 -12 -35 c-7 -19 -16 -35 -22
-35 -5 0 -15 16 -22 35 l-12 35 0 -33 c-1 -42 -21 -32 -22 11 l-2 32 -10 -37
c-6 -21 -15 -38 -20 -38 -6 0 -7 16 -3 38 3 20 6 56 6 80 0 23 5 42 10 42 6 0
10 -9 10 -20 0 -29 16 -24 26 8 8 25 9 24 12 -17 3 -42 4 -43 18 -22z m838 45
c4 -9 4 -33 1 -53 l-5 -36 15 33 c16 35 39 42 49 16 6 -15 8 -15 25 0 18 16
20 16 34 -4 l15 -22 7 21 c7 25 23 27 31 6 10 -25 24 -17 24 15 0 17 4 30 9
30 11 0 2 -142 -10 -154 -6 -6 -9 -3 -9 7 0 25 -17 21 -24 -5 -6 -23 -7 -23
-21 -4 -8 11 -15 27 -15 35 -1 9 -8 0 -16 -19 l-15 -35 -18 24 -19 24 -7 -21
c-3 -12 -10 -20 -15 -17 -4 3 -11 -5 -15 -18 -6 -17 -10 -10 -15 33 -4 30 -7
43 -8 29 -2 -28 -25 -54 -40 -45 -17 10 -20 46 -6 61 9 8 10 16 4 20 -13 8
-13 51 0 76 13 23 36 25 44 3z m-543 -31 c1 -27 3 -32 7 -18 14 41 47 23 55
-30 4 -28 4 -27 6 7 0 20 6 40 13 44 16 10 36 -22 32 -54 -2 -15 3 -7 10 18
l14 45 2 -45 c2 -44 2 -45 10 -12 10 44 18 50 29 21 10 -24 10 -24 10 5 1 28
2 28 20 12 18 -17 20 -17 30 1 10 17 12 17 25 1 16 -22 26 -23 26 -4 0 20 27
14 45 -10 13 -17 14 -17 15 -2 0 26 21 33 37 13 13 -18 13 -18 28 1 13 16 16
17 25 4 13 -20 13 -60 -1 -99 -13 -36 -25 -40 -34 -11 -8 26 -21 26 -28 0 -7
-27 -23 -25 -31 2 -5 22 -6 22 -20 3 -14 -19 -15 -17 -17 25 -2 41 -3 42 -6
10 -4 -34 -23 -68 -23 -42 0 9 -7 8 -25 -4 -23 -15 -25 -15 -31 0 -3 9 -3 32
0 51 4 20 3 35 -2 35 -12 0 -22 -25 -22 -55 0 -38 -20 -40 -21 -3 -2 30 -2 31
-6 5 -2 -15 -13 -32 -23 -37 -17 -9 -21 -6 -26 16 l-7 27 -14 -27 c-17 -32
-29 -33 -37 -4 -5 22 -6 22 -20 3 -14 -19 -15 -17 -17 25 -2 41 -3 42 -6 10
-5 -38 -23 -67 -23 -35 0 18 0 18 -15 -1 -13 -17 -14 -15 -15 32 0 63 9 114
21 114 5 0 9 -17 10 -37z"/>
</g>
</svg>
