<svg xmlns="http://www.w3.org/2000/svg" viewBox="0 0 28 36.495">
  <g id="male-doc" transform="translate(-10 -6)">
    <path id="Path_187" data-name="Path 187" d="M27.305,39.07h-.734a.7.7,0,0,1-.688-.7.652.652,0,0,1,.593-.7.607.607,0,0,1,.1,0h.734a.7.7,0,0,1,0,1.407Z" fill="#030852"/>
    <path id="Path_188" data-name="Path 188" d="M27.3,41.368H26.57a.7.7,0,0,1,0-1.407H27.3a.7.7,0,0,1,0,1.407Z" fill="#030852"/>
    <path id="Path_189" data-name="Path 189" d="M20.19,21.246a2,2,0,0,1-1.561-.657,2.134,2.134,0,0,1-.643-1.548v-.375a.689.689,0,1,1,1.377,0v.375a.854.854,0,0,0,.229.563.771.771,0,0,0,.6.234.74.74,0,0,0,.78-.7.785.785,0,0,0,0-.1v-.375a.7.7,0,0,1,.688-.7.647.647,0,0,1,.689.606.688.688,0,0,1,0,.1v.375A2.182,2.182,0,0,1,20.19,21.246Z" fill="#030852"/>
    <path id="Path_190" data-name="Path 190" d="M27.672,21.245a2.084,2.084,0,0,1-2.157-2.013q0-.1,0-.192v-.375a.652.652,0,0,1,.6-.7l.048,0a.694.694,0,0,1,.733.655c0,.016,0,.032,0,.049v.375a.8.8,0,0,0,1.605.048c0-.016,0-.032,0-.048v-.375a.689.689,0,1,1,1.377,0v.375A2.227,2.227,0,0,1,27.672,21.245Z" fill="#030852"/>
    <path id="Path_191" data-name="Path 191" d="M31.436,31.8H27.9V30.628a9.66,9.66,0,0,0,5.554-8.162,2.426,2.426,0,0,0,1.974-2.439,2.513,2.513,0,0,0-.734-1.783,2.327,2.327,0,0,0-1.285-.7V13.506h1.423a.7.7,0,0,0,.689-.7A6.73,6.73,0,0,0,28.865,6H22.715A3.453,3.453,0,0,0,20.1,7.127l-.5.61c-3.534.188-4.82,3.284-5.049,4.972V17.54a2.777,2.777,0,0,0-1.377.7,2.525,2.525,0,0,0-.03,3.516,2.416,2.416,0,0,0,1.315.706,9.613,9.613,0,0,0,2.8,6.192,8.518,8.518,0,0,0,3.3,2.158V31.8H16.793A6.962,6.962,0,0,0,10,38.743v2.814a.689.689,0,1,0,1.377,0V38.743a5.39,5.39,0,0,1,5.049-5.394v.938a4.424,4.424,0,0,0-1.7.938,3.506,3.506,0,0,0-1.056,2.439V41.51c0,.375.459.61.826.61h1.1a.7.7,0,0,0,0-1.407h-.551V37.664A2.23,2.23,0,0,1,17.161,35.6a2.042,2.042,0,0,1,2.02,2.064v3.049h-.643a.7.7,0,0,0,0,1.407h1.377a.6.6,0,0,0,.641-.561c0-.016,0-.032,0-.049V37.664A3.218,3.218,0,0,0,17.8,34.286V33.208h3.029l2.479,2.767v4.691a.689.689,0,1,0,1.377,0V35.975l2.662-2.767h3.3V36.96A2.867,2.867,0,0,0,29.508,41.7a2.859,2.859,0,0,0,1.974.8,2.768,2.768,0,0,0,1.974-.8,3.036,3.036,0,0,0,.826-2.017,2.891,2.891,0,0,0-2.249-2.721V33.4a5.263,5.263,0,0,1,4.59,5.347v2.814a.689.689,0,1,0,1.377,0V38.743A6.782,6.782,0,0,0,31.436,31.8Zm-7.3,2.861-2.2-2.345V31.237a8.807,8.807,0,0,0,2.111.234,9.218,9.218,0,0,0,2.479-.328v1.173Zm9.593-15.433a1.139,1.139,0,0,1,.321.8.985.985,0,0,1-.643.985V18.994ZM22.715,7.408h6.151A5.18,5.18,0,0,1,34.1,12.1H22.577A2.278,2.278,0,0,1,20.42,9.753a1.719,1.719,0,0,1,.229-.985,1.785,1.785,0,0,1,.413-.61A2.228,2.228,0,0,1,22.715,7.408Zm-3.58,1.829a2.054,2.054,0,0,0-.092.516,3.845,3.845,0,0,0,2.341,3.471,7.6,7.6,0,0,1-5.416,2.533V12.849A4.132,4.132,0,0,1,19.134,9.237ZM13.9,20.026a1.139,1.139,0,0,1,.321-.8c.092-.094-.092-.141.367-.235v2.017A1.031,1.031,0,0,1,13.9,20.026Zm2.066,1.783V17.165a8.561,8.561,0,0,0,6.885-3.659h9.18v8.3a8.3,8.3,0,0,1-5.279,7.74,7.826,7.826,0,0,1-5.371.094,7.51,7.51,0,0,1-3.121-2.017A8.21,8.21,0,0,1,15.967,21.809ZM32.9,39.681a1.279,1.279,0,0,1-.413.985,1.356,1.356,0,0,1-1.947.027l-.027-.027a1.469,1.469,0,0,1-.413-.985,1.392,1.392,0,0,1,1.376-1.408h.047a1.317,1.317,0,0,1,.964.422A1.279,1.279,0,0,1,32.9,39.681Z" fill="#030852"/>
  </g>
</svg>
