<svg xmlns="http://www.w3.org/2000/svg" viewBox="0 0 32 32"><defs><style>.a{fill:#068bc7;}.b{fill:#e0414f;}</style></defs><path class="c1" d="M26.681,2.464,19.63,9.536,31.6,21.653l7.088-7.216a8.416,8.416,0,0,0,2.469-5.595V8.059A8.448,8.448,0,0,0,33.059,0h-.747a8.464,8.464,0,0,0-5.632,2.464Z" transform="translate(-9.161)"/><path class="c2" d="M14.48,38.813l7.035-6.933-12.107-12L2.475,26.856A8.416,8.416,0,0,0,0,32.435v.784a8.448,8.448,0,0,0,8.1,8.059h.747a8.464,8.464,0,0,0,5.632-2.464Z" transform="translate(0 -9.277)"/></svg>